<svg width="200" height="200" viewBox="0 0 200 200" fill="none" xmlns="http://www.w3.org/2000/svg">
<path fill-rule="evenodd" clip-rule="evenodd" d="M55.4712 8.18006C58.1484 5.50358 61.7788 4 65.5644 4H182.635C190.204 4 196.34 10.1357 196.34 17.7045V134.776C196.34 138.562 194.836 142.192 192.16 144.869L144.741 192.299C136.108 200.932 121.346 194.817 121.346 182.608V143.71H70.3346C62.7658 143.71 56.63 137.574 56.63 130.005V78.9942H17.732C5.52254 78.9942 -0.591918 64.2324 8.04144 55.599L55.4712 8.18006ZM66.9084 78.9942V130.005C66.9084 131.898 68.4424 133.432 70.3346 133.432H121.346V82.4202C121.346 80.528 119.812 78.9942 117.92 78.9942H66.9084ZM131.624 133.432V82.4202C131.624 74.8514 125.488 68.7158 117.92 68.7158H66.9084V26.4182C66.9072 26.381 66.9066 26.3434 66.9066 26.3058V17.6937C66.9066 15.8069 68.4362 14.2773 70.323 14.2773H83.1714C83.2 14.2773 83.2286 14.2777 83.257 14.2784H182.635C184.528 14.2784 186.062 15.8123 186.062 17.7045V121.286C186.063 121.325 186.064 121.365 186.064 121.404V130.016C186.064 131.903 184.534 133.433 182.647 133.433H157.536C157.507 133.433 157.478 133.432 157.449 133.432H131.624ZM131.624 143.71V182.608C131.624 185.66 135.315 187.189 137.473 185.031L178.793 143.71H131.624ZM54.6804 23.4959L56.63 21.5383V68.7158H17.732C14.6796 68.7158 13.151 65.0254 15.3094 62.867L54.6804 23.4959Z" fill="#F74874"/>
</svg>
